# AST/ASF file generated using VICON BodyLanguage
# -----------------------------------------------
:version 1.10
:name VICON
:units
  mass 1.0
  length 0.45
  angle deg
:documentation
   .ast/.asf automatically generated from VICON data using
   VICON BodyBuilder and BodyLanguage model FoxedUp or BRILLIANT.MOD
:root
   order TX TY TZ RX RY RZ
   axis XYZ
   position 0 0 0  
   orientation 0 0 0 
:bonedata
  begin
     id 1 
     name lhipjoint
     direction 0.611804 -0.747784 0.257906 
     length 2.29243 
     axis 0 0 0  XYZ
  end
  begin
     id 2 
     name lfemur
     direction 0.34202 -0.939693 0  
     length 7.31159  
     axis 0 0 20  XYZ
    dof rx ry rz
    limits (-160.0 20.0)
           (-70.0 70.0)
           (-60.0 70.0)
  end
  begin
     id 3 
     name ltibia
     direction 0.34202 -0.939693 0   
     length 7.33391   
     axis 0 0 20   XYZ
    dof rx
    limits (-10.0 170.0)
  end
  begin
     id 4 
     name lfoot
     direction 0.122263 -0.335914 0.933924   
     length 1.76083   
     axis -90 7.62852e-016 20   XYZ
    dof rx rz
    limits (-45.0 90.0)
           (-70.0 20.0)
  end
  begin
     id 5 
     name ltoes
     direction 1.53533e-011 -4.2177e-011 1   
     length 0.879206   
     axis -90 7.62852e-016 20   XYZ
    dof rx
    limits (-90.0 20.0)
  end
  begin
     id 6 
     name rhipjoint
     direction -0.646469 -0.721248 0.248754   
     length 2.37677  
     axis 0 0 0  XYZ 
  end
  begin
     id 7 
     name rfemur
     direction -0.34202 -0.939693 0   
     length 7.18623   
     axis 0 0 -20   XYZ
    dof rx ry rz
    limits (-160.0 20.0)
           (-70.0 70.0)
           (-70.0 60.0)
  end
  begin
     id 8 
     name rtibia
     direction -0.34202 -0.939693 0   
     length 7.36567   
     axis 0 0 -20   XYZ
    dof rx
    limits (-10.0 170.0)
 end
 begin
     id 9 
     name rfoot
     direction -0.126681 -0.348054 0.928876   
     length 1.71902  
     axis -90 -7.62852e-016 -20   XYZ
    dof rx rz
    limits (-45.0 90.0)
           (-20.0 70.0)
  end
  begin
     id 10 
     name rtoes
     direction -1.53551e-011 -4.21898e-011 1   
     length 0.857792   
     axis -90 -7.62852e-016 -20   XYZ
    dof rx
    limits (-90.0 20.0)
  end
  begin
     id 11 
     name lowerback
     direction 0.0106509 0.999778 0.0181844   
     length 2.07668   
     axis 0 0 0   XYZ
    dof rx ry rz
    limits (-20.0 45.0)
           (-30.0 30.0)
           (-30.0 30.0)
  end
  begin
     id 12 
     name upperback
     direction -0.00456018 0.999989 -0.000590935   
     length 2.08011   
     axis 0 0 0   XYZ
    dof rx ry rz
    limits (-20.0 45.0)
           (-30.0 30.0)
           (-30.0 30.0)
  end
  begin
     id 13 
     name thorax
     direction -0.00910382 0.999916 -0.00923765   
     length 2.07397   
     axis 0 0 0   XYZ
    dof rx ry rz
    limits (-20.0 45.0)
           (-30.0 30.0)
           (-30.0 30.0)
  end
  begin
     id 14 
     name lowerneck
     direction 0.00171967 0.99778 0.0665733   
     length 1.67556   
     axis 0 0 0   XYZ
    dof rx ry rz
    limits (-20.0 45.0)
           (-30.0 30.0)
           (-30.0 30.0)
  end
  begin
     id 15 
     name upperneck
     direction -0.0143166 0.991302 -0.130828   
     length 1.68462   
     axis 0 0 0   XYZ
    dof rx ry rz
    limits (-20.0 45.0)
           (-30.0 30.0)
           (-30.0 30.0)
  end
  begin
     id 16
     name head
     direction -0.00606378 0.998665 -0.0512995  
     length 1.69269  
     axis 0 0 0   XYZ
    dof rx ry rz
    limits (-20.0 45.0)
           (-30.0 30.0)
           (-30.0 30.0)
  end
  begin
     id 17 
     name lclavicle
     direction 0.9638 0.179341 0.197297  
     length 4.12888  
     axis 0 0 0   XYZ
    dof ry rz
    limits (-20.0 10.0)
           (0.0 20.0)
  end
  begin
     id 18 
     name lhumerus
     direction 1 -4.48972e-011 -2.47351e-027   
     length 5.01834   
     axis -180 -30 -90   XYZ
    dof rx ry rz
    limits (-60.0 90.0)
           (-90.0 90.0)
           (-90.0 90.0)
  end
  begin
     id 19
     name lradius
     direction 1 -4.48965e-011 1.51591e-026   
     length 3.4869   
     axis -180 -30 -90   XYZ
    dof rx
    limits (-10.0 170.0)
  end
  begin
     id 20
     name lwrist
     direction 1 -4.48957e-011 2.70032e-026   
     length 1.74345   
     axis -1.81515e-014 90 90   XYZ
    dof ry
    limits (-180.0 0.0)
 end
  begin
     id 21 
     name lhand
     direction 1 -4.48951e-011 5.40064e-026   
     length 0.76799   
     axis -3.44607e-014 90 90   XYZ
    dof rx rz
    limits (-90.0 90.0)
           (-45.0 45.0)
  end
  begin
     id 22 
     name lfingers
     direction 1 -4.48971e-011 1.08013e-025   
     length 0.619174   
     axis -6.89214e-014 90 90   XYZ
    dof rx
    limits (0.0 90.0)
  end
  begin
     id 23
     name lthumb
     direction 0.707107 -6.34931e-011 0.707107   
     length 0.889013   
     axis -90 45 2.85299e-015   XYZ
    dof rx rz
    limits (-45.0 45.0)
           (-45.0 45.0)
  end
  begin
     id 24 
     name rclavicle
     direction -0.961409 0.252588 0.109054   
     length 4.04305  
     axis 0 0 0   XYZ 
    dof ry rz
    limits (-10.0 20.0)
           (-20.0 0.0)
  end
  begin
     id 25 
     name rhumerus
     direction -1 -4.4897e-011 1.33872e-017  
     length 4.70164   
     axis -180 30 90   XYZ
    dof rx ry rz
    limits (-90.0 60.0)
           (-90.0 90.0)
           (-90.0 90.0)
  end
  begin
     id 26 
     name rradius
     direction -1 -4.48954e-011 1.83844e-026   
     length 3.49911   
     axis -180 30 90   XYZ
    dof rx
    limits (-10.0 170.0)
  end
  begin
     id 27 
     name rwrist
     direction -1 -4.49008e-011 2.70032e-026   
     length 1.74955   
     axis -1.81515e-014 -90 -90   XYZ
    dof ry
    limits (-180.0 0.0)
  end
  begin
     id 28
     name rhand
     direction -1 -4.48916e-011 5.40064e-026   
     length 0.739335   
     axis -3.44607e-014 -90 -90   XYZ
    dof rx rz
    limits (-90.0 90.0)
           (-45.0 45.0)
  end
  begin
     id 29
     name rfingers
     direction -1 -4.48987e-011 1.08013e-025   
     length 0.596071   
     axis -6.89214e-014 -90 -90   XYZ
    dof rx
    limits (0.0 90.0)
  end
  begin
     id 30
     name rthumb
     direction -0.707107 -6.34935e-011 0.707107   
     length 0.855843   
     axis -90 -45 -2.85299e-015   XYZ
    dof rx rz
    limits (-45.0 45.0)
           (-45.0 45.0)
  end
:hierarchy
  begin
    root lhipjoint rhipjoint lowerback
    lhipjoint lfemur
    lfemur ltibia
    ltibia lfoot
    lfoot ltoes
    rhipjoint rfemur
    rfemur rtibia
    rtibia rfoot
    rfoot rtoes
    lowerback upperback
    upperback thorax
    thorax lowerneck lclavicle rclavicle
    lowerneck upperneck
    upperneck head
    lclavicle lhumerus
    lhumerus lradius
    lradius lwrist
    lwrist lhand lthumb
    lhand lfingers
    rclavicle rhumerus
    rhumerus rradius
    rradius rwrist
    rwrist rhand rthumb
    rhand rfingers
  end

#!OML:ASF I:\salsa\salsa 7_09\Patient 1\Session 1\dancermale.ASF
:FULLY-SPECIFIED
:DEGREES
1318
root -3.75597 17.2292 -1.29626 -535.096 194.777 177.602
lowerback 5.20121 -0.156255 -6.69069
upperback 2.28197 -0.511701 1.99703
thorax -0.473983 -0.309753 5.87133
lowerneck -2.56132 4.51166 3.43433
upperneck 24.0332 7.26908 -6.73173
head 8.21164 3.10264 -2.26555
rclavicle 3.13086e-014 -3.08116e-014
rhumerus -40.5728 30.7909 -105.677
rradius 111.164
rwrist 6.60541
rhand -20.5658 -31.1461
rfingers 7.12502
rthumb 5.7936 -61.0469
lclavicle 3.13086e-014 -3.08116e-014
lhumerus -29.7068 -53.5671 106.207
lradius 93.4219
lwrist -34.5173
lhand -17.9545 36.5472
lfingers 7.12502
lthumb 8.31428 426.364
rfemur -11.3175 18.3675 24.7
rtibia 29.1994
rfoot -16.4141 -18.3074
rtoes -41.216
lfemur -30.5917 4.95121 -14.3332
ltibia 42.0213
lfoot -12.0494 -5.28171
ltoes 44.3468
1319
root -3.7615 17.2632 -1.40735 -534.994 191.958 177.109
lowerback 5.48698 -0.24251 -5.81527
upperback 2.21236 -0.598895 2.20129
thorax -0.702971 -0.338862 5.5951
lowerneck -2.41896 4.6623 3.56179
upperneck 23.9433 7.49059 -6.76029
head 8.1745 3.22982 -2.2796
rclavicle 7.10655e-015 5.96354e-016
rhumerus -42.6746 30.1868 -107.253
rradius 112.697
rwrist 10.0168
rhand -22.074 -32.2003
rfingers 7.12502
rthumb 4.33728 -62.1359
lclavicle 7.10655e-015 5.96354e-016
lhumerus -32.4978 -53.321 107.634
lradius 95.2293
lwrist -33.1281
lhand -18.1863 34.7568
lfingers 7.12502
lthumb 8.09049 424.582
rfemur -11.0166 17.4973 25.4182
rtibia 28.1563
rfoot -15.7607 -19.6065
rtoes -39.9343
lfemur -30.3454 5.16762 -13.7578
ltibia 46.2386
lfoot -13.6748 -3.79434
ltoes 42.3096
1320
root -3.76138 17.2925 -1.51252 -534.952 189.266 176.556
lowerback 5.79148 -0.314745 -4.8253
upperback 2.10448 -0.655245 2.36823
thorax -0.989259 -0.351441 5.21382
lowerneck -2.36871 4.79821 3.81073
upperneck 23.9484 7.72732 -6.9783
head 8.19984 3.35371 -2.37458
rclavicle 9.19379e-015 -2.38542e-014
rhumerus -44.7335 28.9193 -108.856
rradius 114.058
rwrist 13.2567
rhand -24.3817 -32.8626
rfingers 7.12502
rthumb 2.10877 -62.8319
lclavicle 9.19379e-015 -2.38542e-014
lhumerus -35.438 -52.8155 108.939
lradius 97.0316
lwrist -32.1267
lhand -18.8529 33.5486
lfingers 7.12502
lthumb 7.44718 423.398
rfemur -10.6176 16.6804 26.1934
rtibia 27.0279
rfoot -15.2047 -20.893
rtoes -38.6343
lfemur -29.8224 6.07738 -12.9517
ltibia 49.9872
lfoot -14.9284 -2.43625
ltoes 40.6033
1321
root -3.75747 17.3174 -1.6139 -535.06 186.717 175.961
lowerback 6.21004 -0.340963 -3.87741
upperback 2.00356 -0.646478 2.57643
thorax -1.3385 -0.33338 4.89804
lowerneck -2.10478 4.90291 4.17293
upperneck 23.77 7.93292 -7.34499
head 8.13344 3.46914 -2.54601
rclavicle 1.76421e-014 -1.46107e-014
rhumerus -46.6004 27.3396 -110.104
rradius 115.353
rwrist 17.2387
rhand -26.2616 -34.0121
rfingers 7.12502
rthumb 0.293124 -63.9916
lclavicle 1.76421e-014 -1.46107e-014
lhumerus -38.1891 -52.0258 109.895
lradius 98.7637
lwrist -31.4921
lhand -18.7503 33.0908
lfingers 7.12502
lthumb 7.54622 422.936
rfemur -10.0414 15.8252 27.0105
rtibia 25.7249
rfoot -14.5792 -21.9017
rtoes -37.3711
lfemur -28.768 7.35135 -11.8666
ltibia 53.0857
lfoot -15.8849 -1.0034
ltoes 39.563
1322
root -3.75195 17.3365 -1.71516 -535.458 184.268 175.246
lowerback 6.77786 -0.332721 -3.07171
upperback 2.04413 -0.590155 2.94864
thorax -1.62455 -0.299257 4.83277
lowerneck -1.80319 4.95532 4.51702
upperneck 23.4867 8.07109 -7.76092
head 8.02271 3.55073 -2.73716
rclavicle -1.22625e-014 1.63997e-014
rhumerus -48.0866 25.7085 -110.675
rradius 116.55
rwrist 21.5053
rhand -27.6897 -35.5022
rfingers 7.12502
rthumb -1.08622 -65.4792
lclavicle -1.22625e-014 1.63997e-014
lhumerus -40.3021 -50.9339 110.292
lradius 100.229
lwrist -30.3602
lhand -18.6533 32.6692
lfingers 7.12502
lthumb 7.63983 422.511
rfemur -9.18241 14.8861 27.9946
rtibia 24.3717
rfoot -13.63 -22.786
rtoes -36.6012
lfemur -27.1073 9.06327 -10.353
ltibia 55.5601
lfoot -16.5519 0.530797
ltoes 37.8759
1323
root -3.74551 17.3464 -1.81275 -536.069 181.985 174.608
lowerback 7.34097 -0.267335 -2.37323
upperback 2.20212 -0.455675 3.26635
thorax -1.79236 -0.231594 4.76336
lowerneck -1.94454 4.9752 4.54892
upperneck 23.5945 8.09668 -7.64407
head 8.08323 3.57783 -2.69676
rclavicle 1.22843e-014 1.36789e-014
rhumerus -49.2591 24.1133 -110.941
rradius 117.356
rwrist 25.1306
rhand -30.1854 -36.7491
rfingers 7.12502
rthumb -3.49646 -66.7002
lclavicle 1.22843e-014 1.36789e-014
lhumerus -41.7289 -49.6192 110.099
lradius 101.31
lwrist -28.7982
lhand -18.0939 31.8263
lfingers 7.12502
lthumb 8.1797 421.648
rfemur -8.14614 13.9258 28.9004
rtibia 23.0411
rfoot -12.7787 -23.6817
rtoes -36.0053
lfemur -25.0282 10.9118 -8.65359
ltibia 57.4896
lfoot -16.9306 2.31663
ltoes 36.3285
